# xmcd
#
# Track frame offsets:
#	150
#	17202
#	34017
#	55510
#	74717
#	94655
#	107857
#	122342
#	134690
#	154747
#	177352
#	199677
#
# Disc length: 2805 seconds
#
# Revision: 0
# Processed by: cddbd v1.5.2PL0 Copyright (c) Steve Scherf et al.
# Submitted via: dBpowerAMP V4.0
#
DISCID=a40af30c
DTITLE=Mary Ellen Bernard - Coney Island Mojo
DYEAR=1996
DGENRE=Blues
TTITLE0=The Big Idea
TTITLE1=This 'n' That
TTITLE2=Coney Island Mojo
TTITLE3=Like Stardust
TTITLE4=Only A Good Woman
TTITLE5=The Duke Of Dutchess County
TTITLE6=Blue Caribbean Waltz
TTITLE7=Traded Dreams
TTITLE8=The Diaper Rag
TTITLE9=Who Do The Voodoo
TTITLE10=Lace Against The Moonlight
TTITLE11=I Want You To Be My Baby
EXTD=Triple Z Records TZ CD-002
EXTT0=
EXTT1=
EXTT2=
EXTT3=
EXTT4=
EXTT5=
EXTT6=
EXTT7=
EXTT8=
EXTT9=
EXTT10=
EXTT11=
PLAYORDER=
